<svg width="26" height="26" viewBox="0 0 26 26" fill="none" xmlns="http://www.w3.org/2000/svg">
<path d="M14.3355 17.4535L12.5988 19.0988C12.416 19.373 12.1063 19.5 11.7812 19.5H9.75V21.5312C9.75 22.2066 9.20664 22.75 8.53125 22.75H6.5V24.7812C6.5 25.4566 5.95664 26 5.28125 26H1.21875C0.545898 26 0 25.4566 0 24.7812V20.7188C0 20.3937 0.128426 20.084 0.356941 19.8555L8.54648 11.6645C8.27227 10.8062 8.125 9.88711 8.125 8.9375C8.125 4.00156 12.1266 0 17.0625 0C21.9984 0 26 4.00156 26 8.9375C26 13.8734 21.9984 17.875 17.0625 17.875C16.1129 17.875 15.1937 17.7277 14.3355 17.4535ZM19.0938 8.9375C20.216 8.9375 21.125 8.02852 21.125 6.90625C21.125 5.78398 20.216 4.875 19.0938 4.875C17.9715 4.875 17.0625 5.78398 17.0625 6.90625C17.0625 8.02852 17.9715 8.9375 19.0938 8.9375Z" fill="#888686" fill-opacity="0.5"/>
</svg>
